<svg width="192" height="53" viewBox="0 0 192 53" fill="none" xmlns="http://www.w3.org/2000/svg">
<path d="M21.4553 39.9041L20.9842 40.6402L22.0147 41.2291L18.2164 47.7952L17.0092 47.0002L16.5381 47.7657L18.5109 49.0907L23.2219 40.9347L21.4553 39.9041ZM0.726532 37.2247L10.3842 43.6435L10.8554 42.878L1.72764 36.783L3.1704 30.3053L14.5948 36.9008L15.0659 36.1647L2.58152 28.9509L0.726532 37.2247Z" fill="#333333"/>
<path d="M20.042 18.9398L16.7442 1.97994L23.2219 0.713837L26.5197 17.6737L20.042 18.9398ZM17.7747 2.6866L20.7192 17.9093L25.4597 16.9965L22.5153 1.77383L17.7747 2.6866Z" fill="#333333"/>
<path d="M32.9974 9.84155L23.958 24.2987L27.403 28.0086L37.1196 12.4326L32.9974 9.84155ZM8.08759 49.709L12.2392 52.3001L21.9853 36.7241L18.717 32.7492L8.08759 49.709Z" fill="#333333"/>
<path d="M24.3114 37.7841L10.767 21.3837L16.7148 18.0565L30.3474 32.808L24.3114 37.7841ZM12.1215 21.6487L24.4292 36.5475L29.0519 32.7492L16.5381 19.2048L12.1215 21.6487Z" fill="#333333"/>
<path d="M51.7828 22.8559H55.9639V34.4569C55.9639 35.8114 55.9345 36.9891 55.905 38.0491C55.8756 39.1091 55.7873 40.0513 55.64 40.8758C55.4928 41.7002 55.2573 42.4658 54.9628 43.1135C54.6389 43.7613 54.1973 44.3796 53.6378 44.9391C52.6073 45.9402 51.4295 46.6468 50.1634 47.0296C48.8679 47.4124 47.5429 47.589 46.1295 47.589C44.9223 47.589 43.8034 47.4418 42.7435 47.1768C41.6835 46.8824 40.7412 46.4996 39.8874 45.9991V41.4352C40.0935 41.7591 40.3879 42.0535 40.8001 42.3185C41.1829 42.5835 41.6246 42.7896 42.1546 42.9958C42.6551 43.1724 43.2146 43.3196 43.774 43.4374C44.3629 43.5552 44.9223 43.5846 45.5112 43.5846C46.2768 43.5846 47.0129 43.4963 47.6901 43.2902C48.3673 43.0841 48.9562 42.7602 49.4862 42.3185C49.9867 41.8769 50.399 41.3174 50.6934 40.6402C50.9878 39.963 51.1351 39.1386 51.1351 38.1963V37.843C50.4578 38.4613 49.6628 38.9324 48.7795 39.3152C47.8962 39.6686 46.8951 39.8747 45.8351 39.8747C44.6573 39.8747 43.5679 39.6391 42.5668 39.1974C41.5657 38.7558 40.7118 38.108 39.9757 37.313C39.2396 36.518 38.6801 35.6052 38.2679 34.5158C37.8557 33.4558 37.6496 32.3075 37.6496 31.1003C37.6496 29.8931 37.8557 28.7742 38.2679 27.7142C38.6801 26.6542 39.2396 25.7414 39.9757 24.9464C40.7118 24.1514 41.5657 23.5331 42.5668 23.062C43.5679 22.5909 44.6573 22.3848 45.8351 22.3848C46.954 22.3848 47.9551 22.532 48.8384 22.8264C49.7217 23.1209 50.4873 23.592 51.1351 24.2103L51.7828 22.8559ZM46.7773 35.5169C47.5429 35.5169 48.1906 35.3697 48.7206 35.1047C49.2506 34.8397 49.7217 34.4864 50.0751 34.0741C50.4284 33.6619 50.6934 33.1908 50.8406 32.6608C51.0173 32.1308 51.0762 31.6303 51.0762 31.1297C51.0762 30.5997 50.9878 30.0403 50.8112 29.5103C50.6345 28.9803 50.3695 28.5092 50.0162 28.097C49.6628 27.6847 49.2212 27.3609 48.6617 27.0959C48.1317 26.8309 47.484 26.7131 46.7479 26.7131C46.1295 26.7131 45.5701 26.8309 45.0401 27.0664C44.5101 27.302 44.0684 27.6259 43.6857 28.0086C43.3029 28.4208 42.979 28.8625 42.7729 29.3925C42.5373 29.9225 42.449 30.4819 42.449 31.1003C42.449 31.7186 42.5668 32.278 42.7729 32.808C43.0084 33.338 43.3029 33.8091 43.6857 34.1919C44.0684 34.6041 44.5396 34.8986 45.0401 35.1341C45.5995 35.3991 46.159 35.5169 46.7773 35.5169Z" fill="#333333"/>
<path d="M62.0294 25.2998C62.265 24.917 62.53 24.5636 62.8539 24.2103C63.1778 23.857 63.5311 23.5625 63.9433 23.2975C64.3555 23.0325 64.8561 22.797 65.3861 22.6498C65.9161 22.4731 66.5344 22.4142 67.2116 22.4142C68.0066 22.4142 68.9488 22.5614 70.0088 22.8264L69.5377 27.1842C69.2727 27.1253 69.0077 27.0664 68.7722 27.0075C68.5661 26.9486 68.3305 26.9192 68.0655 26.8897C67.8005 26.8603 67.565 26.8309 67.3588 26.8309C66.5933 26.8309 65.9161 26.9486 65.2683 27.1547C64.6205 27.3608 64.0611 27.6553 63.59 28.0381C63.1189 28.4208 62.7361 28.8625 62.4711 29.3925C62.1767 29.9225 62.0589 30.4819 62.0589 31.1003V40.4046H57.1711V22.8853H61.5878L62.0294 25.2998Z" fill="#333333"/>
<path d="M88.3526 22.8559V40.3752H84.142L83.6415 38.4908C82.9643 39.4036 82.1398 40.0219 81.1976 40.3163C80.2554 40.6108 79.2543 40.7874 78.2237 40.7874C76.9871 40.7874 75.8388 40.5519 74.7788 40.0513C73.7188 39.5802 72.806 38.903 72.0405 38.0786C71.2749 37.2541 70.6566 36.253 70.2149 35.1341C69.7733 34.0153 69.5671 32.808 69.5671 31.5419C69.5671 30.2758 69.7733 29.0686 70.2149 27.9497C70.6566 26.8309 71.2455 25.8592 72.0405 25.0053C72.806 24.1809 73.7188 23.5037 74.7788 23.0326C75.8388 22.5614 76.9871 22.2964 78.2237 22.2964C79.3426 22.2964 80.4026 22.4731 81.3448 22.8264C82.287 23.1798 83.0526 23.7392 83.6709 24.5342L84.1715 22.797H88.3526V22.8559ZM83.4648 31.6597C83.4648 30.7469 83.347 29.9814 83.082 29.3336C82.8465 28.7153 82.4932 28.2147 82.0809 27.8025C81.6687 27.4197 81.1976 27.1253 80.6382 26.9486C80.0787 26.772 79.4898 26.6836 78.8421 26.6836C78.1943 26.6836 77.6054 26.8014 77.046 27.0664C76.4865 27.3314 76.0154 27.6847 75.5738 28.097C75.1615 28.5386 74.8082 29.0392 74.5727 29.6575C74.3371 30.2464 74.2193 30.8942 74.2193 31.5419C74.2193 32.2192 74.3371 32.8669 74.5727 33.4558C74.8082 34.0447 75.1321 34.5452 75.5738 34.9869C75.986 35.4286 76.4865 35.7819 77.046 36.0175C77.6054 36.2825 78.1943 36.4002 78.8421 36.4002C80.1082 36.4002 81.1976 36.0175 82.0809 35.2225C82.9937 34.4864 83.4354 33.2792 83.4648 31.6597Z" fill="#333333"/>
<path d="M91.9447 20.4709C91.1792 20.4709 90.5609 20.2059 90.0309 19.7054C89.5009 19.1754 89.2653 18.557 89.2653 17.7915C89.2653 17.0259 89.5303 16.4076 90.0309 15.8776C90.5609 15.3476 91.1792 15.0826 91.9447 15.0826C92.7103 15.0826 93.3286 15.3476 93.8586 15.8776C94.3886 16.4076 94.6242 17.0554 94.6242 17.7915C94.6242 18.557 94.3592 19.1754 93.8586 19.7054C93.3581 20.2059 92.7103 20.4709 91.9447 20.4709ZM94.3886 40.3752H89.5009V22.8559H94.3886V40.3752Z" fill="#333333"/>
<path d="M104.635 22.8559C105.283 22.8559 106.019 22.9442 106.814 23.1503C107.609 23.3564 108.375 23.6803 109.081 24.2103C109.788 24.7403 110.377 25.447 110.848 26.3597C111.319 27.2725 111.555 28.4797 111.555 29.9225V40.3752H106.667V30.1286C106.667 29.5986 106.579 29.1275 106.402 28.7447C106.225 28.362 105.99 28.0675 105.695 27.832C105.401 27.5964 105.077 27.4492 104.694 27.3314C104.311 27.2136 103.929 27.1842 103.575 27.1842C103.281 27.1842 102.927 27.2431 102.574 27.3314C102.221 27.4492 101.867 27.5964 101.544 27.832C101.22 28.0675 100.955 28.362 100.749 28.7447C100.543 29.1275 100.425 29.5692 100.425 30.0697V40.3163H95.537V22.797H99.7181L100.425 24.1514C100.984 23.7392 101.632 23.4153 102.339 23.1798C103.045 23.0031 103.811 22.8559 104.635 22.8559Z" fill="#333333"/>
<path d="M120.682 35.9585C121.183 36.4002 121.86 36.6358 122.685 36.6358C123.332 36.6358 124.01 36.518 124.657 36.253V40.3163C124.068 40.493 123.45 40.6696 122.773 40.7874C122.125 40.9052 121.448 40.9935 120.8 40.9935C120.035 40.9935 119.328 40.9052 118.651 40.6991C117.973 40.5224 117.355 40.1985 116.825 39.7274C116.295 39.2563 115.853 38.6674 115.53 37.9019C115.206 37.1363 115.058 36.1941 115.058 35.0458V27.1253H112.556V23.8275L115.058 22.7675V18.8809H119.946V22.797H124.687V27.1547H119.946V34.0741C119.917 34.8691 120.182 35.5169 120.682 35.9585Z" fill="#333333"/>
<path d="M130.693 25.2409C130.929 24.8581 131.194 24.5047 131.518 24.1514C131.842 23.7981 132.195 23.5036 132.607 23.2386C133.019 22.9736 133.52 22.7381 134.05 22.5909C134.58 22.4142 135.198 22.3553 135.876 22.3553C136.671 22.3553 137.613 22.5025 138.673 22.7675L138.202 27.1253C137.937 27.0664 137.672 27.0075 137.436 26.9486C137.23 26.8897 136.994 26.8603 136.729 26.8308C136.464 26.8014 136.229 26.772 136.023 26.772C135.257 26.772 134.58 26.8897 133.932 27.0958C133.284 27.3019 132.725 27.5964 132.254 27.9792C131.783 28.3619 131.4 28.8036 131.135 29.3336C130.841 29.8636 130.723 30.423 130.723 31.0414V40.3163H125.835V22.797H130.252L130.693 25.2409Z" fill="#333333"/>
<path d="M157.017 22.797V40.3163H152.806L152.305 38.4319C151.628 39.3446 150.804 39.963 149.862 40.2574C148.919 40.5519 147.918 40.7285 146.888 40.7285C145.651 40.7285 144.503 40.493 143.443 39.9924C142.383 39.5213 141.47 38.8441 140.704 38.0196C139.939 37.1952 139.321 36.1941 138.879 35.0752C138.437 33.9563 138.231 32.7491 138.231 31.483C138.231 30.2169 138.437 29.0097 138.879 27.8908C139.321 26.7719 139.909 25.8003 140.704 24.9464C141.47 24.122 142.383 23.4447 143.443 22.9736C144.503 22.5025 145.651 22.2375 146.888 22.2375C148.007 22.2375 149.067 22.4142 150.009 22.7675C150.951 23.1209 151.717 23.6803 152.335 24.4753L152.835 22.7381H157.017V22.797ZM152.158 31.6008C152.158 30.688 152.04 29.9225 151.775 29.2747C151.54 28.6564 151.187 28.1558 150.774 27.7436C150.362 27.3608 149.891 27.0664 149.332 26.8897C148.772 26.7131 148.183 26.6247 147.535 26.6247C146.888 26.6247 146.299 26.7425 145.739 27.0075C145.18 27.2725 144.709 27.6258 144.267 28.038C143.855 28.4797 143.502 28.9803 143.266 29.5986C143.031 30.1875 142.913 30.8353 142.913 31.483C142.913 32.1602 143.031 32.808 143.266 33.3969C143.502 33.9858 143.825 34.4863 144.267 34.928C144.679 35.3697 145.18 35.723 145.739 35.9585C146.299 36.2235 146.888 36.3413 147.535 36.3413C148.802 36.3413 149.891 35.9585 150.774 35.1636C151.658 34.4274 152.129 33.2202 152.158 31.6008Z" fill="#333333"/>
<path d="M167.028 26.6542C166.439 26.6542 165.879 26.8014 165.379 27.0664C164.849 27.3314 164.407 27.7142 164.024 28.1558C163.641 28.6269 163.318 29.1569 163.111 29.7753C162.876 30.3936 162.788 31.0414 162.788 31.748C162.788 32.4547 162.905 33.1025 163.111 33.6619C163.347 34.2508 163.641 34.7219 164.024 35.1341C164.407 35.5463 164.878 35.8702 165.379 36.1058C165.879 36.3413 166.439 36.4591 167.028 36.4591C167.764 36.4591 168.47 36.2824 169.177 35.9585C169.884 35.6052 170.473 35.1341 170.973 34.5158L173.976 37.4896C173.152 38.4908 172.151 39.2563 170.944 39.8452C169.736 40.4341 168.441 40.7285 167.057 40.7285C165.791 40.7285 164.584 40.493 163.494 39.9924C162.375 39.5213 161.433 38.8441 160.609 38.0196C159.784 37.1952 159.136 36.1941 158.636 35.0752C158.165 33.9563 157.9 32.7491 157.9 31.483C157.9 30.2169 158.135 29.0097 158.636 27.8908C159.107 26.7719 159.784 25.8003 160.609 24.9464C161.433 24.122 162.405 23.4447 163.494 22.9736C164.584 22.5025 165.791 22.2375 167.057 22.2375C168.5 22.2375 169.825 22.532 171.061 23.1503C172.298 23.7686 173.329 24.5931 174.183 25.6531L170.796 28.2736C170.119 27.6258 169.501 27.1842 168.941 26.9486C168.323 26.7719 167.705 26.6542 167.028 26.6542Z" fill="#333333"/>
<path d="M184.547 30.0697L191.937 40.3163H186.107L181.485 33.3086L179.747 35.193V40.3163H174.86V14.5231H179.747V28.833L185.43 22.797H191.349L184.547 30.0697Z" fill="#333333"/>
</svg>
